<svg width="25" height="24" viewBox="0 0 25 24" fill="none" xmlns="http://www.w3.org/2000/svg">
<path d="M6.15188 2C4.1289 2 2.5 3.6289 2.5 5.65188V18.3481C2.5 20.3711 4.1289 22 6.15188 22H13.0331V14.1813H10.9656V11.3663H13.0331V8.96126C13.0331 7.07176 14.2547 5.33688 17.0688 5.33688C18.2081 5.33688 19.0506 5.44626 19.0506 5.44626L18.9844 8.07502C18.9844 8.07502 18.1251 8.0669 17.1875 8.0669C16.1727 8.0669 16.01 8.53446 16.01 9.31066V11.3663H19.065L18.9319 14.1813H16.01V22H18.8481C20.8711 22 22.5 20.3711 22.5 18.3482V5.6519C22.5 3.62892 20.8711 2.00002 18.8481 2.00002H6.15186L6.15188 2Z" fill="black"/>
</svg>
